<svg width="200" height="50" viewBox="0 0 6967 2253" fill="none" xmlns="http://www.w3.org/2000/svg">
<path d="M2634.45 2048.18V707.554H2886.82V920.518H2900.77C2925.24 848.367 2968.31 791.634 3030.01 750.321C3092.3 708.427 3162.75 687.478 3241.34 687.478C3257.63 687.478 3276.85 688.06 3298.96 689.225C3321.66 690.389 3339.43 691.843 3352.23 693.588V943.21C3341.74 940.302 3323.12 937.1 3296.33 933.61C3269.57 929.536 3242.79 927.501 3216.01 927.501C3154.31 927.501 3099.29 940.593 3050.97 966.776C3003.25 992.379 2965.4 1028.16 2937.45 1074.13C2909.52 1119.52 2895.55 1171.3 2895.55 1229.49V2048.18H2634.45ZM3578.17 2048.18V707.554H3839.27V2048.18H3578.17ZM3710.03 500.698C3664.62 500.698 3625.61 485.57 3593.01 455.313C3561 424.473 3544.99 387.817 3544.99 345.34C3544.99 302.281 3561 265.622 3593.01 235.367C3625.61 204.527 3664.62 189.107 3710.03 189.107C3755.44 189.107 3794.15 204.527 3826.15 235.367C3858.75 265.622 3875.07 302.281 3875.07 345.34C3875.07 387.817 3858.75 424.473 3826.15 455.313C3794.15 485.57 3755.44 500.698 3710.03 500.698ZM5337.89 707.554L4851.51 2048.18H4572.09L4084.85 707.554H4365.15L4704.82 1739.21H4718.79L5057.59 707.554H5337.89ZM6115.69 2075.24C5983.55 2075.24 5869.74 2047.02 5774.27 1990.58C5679.4 1933.55 5606.04 1853.55 5554.24 1750.56C5503.01 1646.98 5477.39 1525.66 5477.39 1386.6C5477.39 1249.27 5503.01 1128.24 5554.24 1023.51C5606.04 918.773 5678.23 837.02 5770.79 778.252C5863.92 719.481 5972.79 690.098 6097.35 690.098C6173.05 690.098 6246.39 702.608 6317.41 727.629C6388.43 752.649 6452.18 791.925 6508.63 845.457C6565.11 898.988 6609.63 968.522 6642.24 1054.06C6674.84 1139.01 6691.15 1242.29 6691.15 1363.9V1456.42H5624.95V1260.91H6435.29C6435.29 1192.25 6421.32 1131.45 6393.37 1078.49C6365.44 1024.96 6326.14 982.779 6275.51 951.939C6225.42 921.1 6166.64 905.681 6099.12 905.681C6025.76 905.681 5961.72 923.718 5907.01 959.794C5852.87 995.287 5810.95 1041.84 5781.26 1099.44C5752.16 1156.47 5737.61 1218.43 5737.61 1285.35V1438.09C5737.61 1527.7 5753.33 1603.92 5784.76 1666.77C5816.77 1729.61 5861.3 1777.61 5918.36 1810.78C5975.41 1843.36 6042.07 1859.66 6118.32 1859.66C6167.8 1859.66 6212.92 1852.67 6253.66 1838.71C6294.42 1824.16 6329.64 1802.63 6359.31 1774.12C6389.01 1745.61 6411.71 1710.41 6427.43 1668.51L6674.55 1713.03C6654.76 1785.76 6619.24 1849.47 6568.02 1904.17C6517.38 1958.28 6453.63 2000.47 6376.79 2030.73C6300.52 2060.41 6213.5 2075.24 6115.69 2075.24Z" fill="#185BE5"/>
<path d="M323.375 409.636L779.625 1744.15H798.035L1254.28 409.636H1521.63L931.709 2048.18H645.951L56.0303 409.636H323.375Z" fill="#152D5E"/>
<path d="M1639.29 2048.18C1746.93 2048.18 1853.51 2026.99 1952.96 1985.82C2052.4 1944.65 2142.76 1884.3 2218.87 1808.22C2294.99 1732.15 2355.36 1641.83 2396.55 1542.43C2437.73 1443.03 2458.94 1336.5 2458.94 1228.91C2458.94 1121.32 2437.73 1014.79 2396.55 915.388C2355.36 815.987 2294.99 725.673 2218.87 649.595C2142.76 573.519 2052.4 513.172 1952.96 471.999C1853.51 430.827 1746.93 409.636 1639.29 409.636V604.984C1721.27 604.984 1802.44 621.121 1878.17 652.477C1953.9 683.833 2022.71 729.79 2080.67 787.727C2138.64 845.663 2184.63 914.445 2216 990.142C2247.37 1065.84 2080.67 1133.84 2080.67 1228.91C2080.67 1323.98 2247.37 1391.98 2216 1467.68C2184.63 1543.37 2138.64 1612.15 2080.67 1670.09C2022.71 1728.03 1953.9 1773.99 1878.17 1805.34C1802.44 1836.7 1721.27 1852.83 1639.29 1852.83V2048.18Z" fill="#185BE5"/>
<path d="M1639.29 1433.73C1693.64 1433.73 1745.76 1412.15 1784.19 1373.74C1822.62 1335.33 1844.21 1283.23 1844.21 1228.91C1844.21 1174.59 1822.62 1122.49 1784.19 1084.08C1745.76 1045.67 1693.64 1024.09 1639.29 1024.09V1228.91V1433.73Z" fill="#152D5E"/>
</svg>